<svg width="135" height="189" viewBox="0 0 135 189" fill="none" xmlns="http://www.w3.org/2000/svg">
<path d="M126.211 102.174C131.951 92.0569 134.821 80.4332 134.821 67.3027C134.821 54.1722 131.951 42.4768 126.211 32.3598C120.47 22.2429 112.578 14.3503 102.461 8.61016C92.3439 2.87005 80.6485 0 67.3027 0C54.3157 0 42.692 2.87005 32.5033 8.61016C22.3147 14.3503 14.3503 22.2429 8.61016 32.3598C2.87005 42.4768 0 54.1005 0 67.3027C0 80.505 2.9418 92.1287 8.75366 102.174C14.5655 112.291 22.6017 120.183 32.7186 125.924C42.9073 131.664 54.6027 134.534 67.7332 134.534C80.9355 134.534 92.4874 131.664 102.533 125.924C112.65 120.183 120.47 112.291 126.211 102.174ZM89.7609 80.4332C87.6083 84.236 84.6665 87.2496 80.9355 89.4021C77.1327 91.5547 72.7558 92.6309 67.805 92.6309C62.8541 92.6309 58.4056 91.5547 54.4592 89.4021C50.5129 87.2496 47.4994 84.236 45.4186 80.4332C43.266 76.6304 42.1898 72.2536 42.1898 67.231C42.1898 62.2801 43.266 57.9033 45.4186 54.0287C47.5711 50.2259 50.5129 47.2124 54.3875 45.0598C58.2621 42.9073 62.5671 41.831 67.3745 41.831C72.3253 41.831 76.7739 42.9073 80.6485 45.0598C84.523 47.2124 87.5366 50.2259 89.6891 54.0287C91.9134 57.8315 92.9897 62.2084 92.9897 67.231C92.9897 72.2536 91.9134 76.6304 89.7609 80.4332ZM92.7027 146.301C84.6665 148.669 76.1999 149.96 67.4462 149.96C58.6926 149.96 50.1542 148.669 42.1898 146.301L67.4462 188.06L92.7027 146.301Z" fill="#F9FAFB" style="fill:#F9FAFB;fill:color(display-p3 0.9765 0.9804 0.9843);fill-opacity:1;"/>
</svg>
